<?xml version="1.0" encoding="UTF-8"?>
<svg width="1769.2mm" height="360.5mm" version="1.1" viewBox="0 0 1769.2 360.5" xmlns="http://www.w3.org/2000/svg"><g transform="translate(57.081 -162.02)"><g transform="translate(.75868 .2203)" clip-rule="evenodd" fill="#000000" fill-rule="evenodd" stroke-width="14.294"><path class="st5" d="m1108.4 325.89c11.006-3.1445 21.441-6.289 31.876-9.0048 14.294-3.5738 28.73-6.8616 43.31-9.8628 3.8591-0.85794 7.8615-0.85794 11.864-0.43057 7.7189 0.71463 11.006 4.2884 11.578 12.15 0.1414 1.1433 0.2828 2.4299 0.4306 4.4311 4.0024-1.0006 7.5762-1.7152 11.149-2.7158 14.008-4.0024 28.016-8.2902 42.024-12.15 5.1457-1.4293 10.72-2.0012 16.009-2.1439 10.005-0.28277 13.579 3.7165 13.579 13.579v3.7165c3.4305-0.85794 6.289-1.7152 9.2908-2.5732 17.296-4.5738 34.591-9.2908 52.03-13.865 4.7171-1.286 9.5768-1.286 14.151 0.71527 4.8604 2.1439 7.4329 5.8603 6.2896 11.006-1.0006 4.4311-2.5732 9.0048-5.1457 12.579-5.575 7.7189-12.007 15.008-18.154 22.298-5.2884 6.4323-10.863 12.722-16.009 19.297-1.7152 2.2872-3.0018 5.003-4.0017 7.7189-1.144 3.4305-0.1414 5.2884 3.5731 5.7177 3.8591 0.43058 8.0049 0.57196 11.864 0.14139 10.577-1.1433 20.869-4.0024 30.589-8.4335 2.4298-1.1433 4.0024-2.4299 4.8597-5.1457 10.149-29.731 31.304-49.171 58.605-62.893 15.438-7.7182 31.733-13.007 49.314-12.435 4.1457 0.14138 8.2908 1.0006 12.15 2.4299 6.8609 2.5732 9.1481 8.0042 7.4329 15.151-2.0013 8.4335-6.861 15.152-12.865 21.155-9.0049 8.8622-19.44 15.866-30.875 21.297-12.435 5.861-25.3 10.721-38.021 16.152-0.7153 0.28277-1.5726 0.57196-2.5732 1.0006 1.2866 4.1451 4.5738 6.575 7.7189 8.7189 6.4323 4.2884 13.579 6.4323 21.155 7.0043 14.866 1.2866 29.016-2.0012 42.882-7.2896 0.7147-0.28277 1.5726-0.71527 2.2872-1.0006 8.2902-2.4305 13.436-6.8616 16.438-15.724 4.5737-13.722 14.722-24.157 25.586-33.447 19.44-16.581 41.31-28.159 66.467-33.447 8.8621-1.8586 17.724-2.5732 26.729-0.85794 13.722 2.7158 22.441 10.291 25.157 24.443 0.1414 0.85794 0.4306 1.5726 0.7146 2.2872 17.582-1.8586 34.163-17.296 36.307-34.305 5.4317-1.1433 11.149-0.57196 17.152-0.28276 0.1414 5.003-1.8579 8.7195-3.7165 12.293-8.8622 17.01-23.013 28.016-40.452 34.591-8.5762 3.1445-14.58 7.4329-19.154 15.723-8.1476 14.58-21.298 25.015-35.02 34.448-15.008 10.149-31.018 18.01-48.742 22.013-9.2909 2.0012-18.582 2.8592-28.016 1.0006-12.436-2.4299-21.298-9.1482-26.444-20.726-0.2892-0.57196-0.5719-1.0006-1.1433-2.1439-2.4305 1.1433-4.8603 2.1439-7.2902 3.2878-17.867 8.1469-36.307 14.865-55.603 18.582-12.15 2.2872-24.443 3.2878-36.735 1.0006-12.293-2.4299-22.156-8.4335-28.588-19.44-0.4305-0.71463-1.0006-1.2866-1.5725-2.1439-9.7201 3.5732-19.297 7.1469-28.874 10.434-16.581 5.7177-33.305 11.007-50.886 12.579-5.575 0.43058-11.293 0.28277-16.724-0.85729-10.72-2.2872-15.151-13.293-9.0048-22.441 4.5737-7.0043 10.005-13.437 15.151-19.869 4.7171-5.8604 9.8628-11.435 14.58-17.295 2.1445-2.7158 4.2884-5.7177 5.7177-8.8628 1.8585-4.0018 0.4305-6.289-4.0025-7.1469-1.5719-0.28277-3.4304-0.28277-5.0024 0-6.7183 1.5726-13.436 2.8592-20.012 5.003-2.5732 0.85794-5.0031 3.0018-6.7183 5.1457-16.295 19.297-32.59 38.737-48.599 58.176-4.8597 6.0037-10.72 8.8622-18.439 8.4335-8.1475-0.43057-16.295 0-24.443-0.14138-2.4299 0-5.1457 0.28277-6.575-3.2878 1.2866-1.8579 2.4299-4.2878 4.1451-6.289 13.293-15.866 26.586-31.732 39.88-47.599 2.7159-3.2878 5.575-6.861 7.5762-10.721 3.4305-6.289 1.1433-9.7195-5.861-9.5768-9.5768 0.14138-18.296 3.7164-27.015 7.2902-1.8586 0.8573-3.2878 3.1445-4.7171 4.8597-15.866 18.868-31.732 37.736-47.313 56.747-5.1457 6.1463-11.006 9.0048-19.011 8.5762-7.8616-0.43058-15.866-0.14138-23.871-0.14138-2.4299 0-5.1457 0.28276-6.7183-3.5732 2.8592-3.7165 6.0037-7.8622 9.2908-11.721 12.579-15.151 25.301-30.017 37.736-45.169 1.5726-1.8579 3.0018-4.0018 4.0025-6.289 2.1438-5.289 0-8.8622-5.5744-9.1482-4.1451-0.28277-8.2909 0-12.436 0.57196-3.1445 0.28277-6.1463 1.4293-9.1481 2.0012-7.147 1.4293-12.435 4.4311-16.009 11.863-5.2884 11.293-14.58 19.726-24.157 27.588-18.153 14.865-38.307 26.015-61.321 31.304-9.0048 2.1439-18.153 2.7158-27.301 1.1433-10.863-2.0012-19.297-7.4329-25.015-17.01-0.57197-0.85794-1.1433-1.7152-2.0012-2.8585-5.717 2.1439-11.292 4.4311-17.01 6.289-20.011 6.861-40.308 12.579-61.463 13.579-6.0036 0.28277-12.15-0.14139-18.01-1.5726-9.8628-2.4299-13.151-11.292-7.8616-20.012 2.1439-3.5732 5.0024-6.7176 7.7182-9.8628 9.4341-10.863 19.011-21.726 28.302-32.733 3.7158-4.4311 7.1469-9.2908 10.434-14.151 1.7152-2.5732 2.7158-5.4317 4.5744-9.2915-3.1451 0.28277-5.1457 0.43058-7.0043 0.71463-15.723 2.8592-28.445-1.8579-37.736-15.008-0.28276-0.28277-0.57196-0.57196-1.2866-1.1433-1.0006 1.1433-2.1439 2.1439-3.0012 3.4305-15.438 21.012-31.447 41.738-50.315 59.891-15.152 14.58-32.018 26.873-52.03 34.019-24.871 8.8622-49.6 7.5756-74.329-0.43058-5.1457-1.7152-10.291-3.7164-15.151-5.7177-7.0043-2.8585-7.2902-4.2878-1.5726-9.1482 8.7195-7.5756 17.296-15.151 25.872-22.727 2.8592-2.4305 5.4317-5.1457 8.1475-7.7189 4.8597-4.7171 4.8597-4.7171 10.577-1.5726 9.8628 5.575 20.44 8.4335 31.876 7.1469 10.291-1.1433 19.868-4.8597 28.73-10.005 13.151-7.5756 24.586-17.153 35.449-27.73 20.011-19.44 37.45-41.023 55.317-62.321 14.58-17.438 29.446-34.734 44.597-51.744 6.2896-7.0036 13.579-13.007 20.298-19.44 1.1433-1.1433 2.4299-2.2872 4.5738-4.2884-8.5762-1.7152-16.009-3.7165-23.585-4.7171-29.874-4.0018-59.177-1.4293-87.622 8.7195-17.581 6.2896-34.019 15.008-48.027 27.587-6.289 5.7177-11.721 12.007-16.009 19.297-16.866 29.016 6.2896 53.602 30.017 54.602 3.7165 0.14138 7.2902 0.28276 12.007 0.43057-1.1439 2.0012-1.4292 3.4305-2.4299 4.2878-8.7195 8.0049-17.582 16.152-26.444 24.014-1.1439 1.0006-3.4305 1.5726-5.1457 1.4293-12.865-1.5719-25.015-5.2884-35.163-13.436-14.294-11.578-17.581-26.73-13.15-44.026 4.2878-16.866 13.865-30.732 25.586-43.168 16.724-18.01 36.735-31.446 58.891-41.738 36.449-16.867 74.757-23.299 114.64-20.298 13.293 1.0006 26.444 3.8591 39.594 6.289 2.8592 0.57196 5.289 0.71527 7.5762-1.286 4.4311-3.7165 9.4335-4.8604 15.151-4.4311 4.7171 0.43058 9.4341 0.14139 14.151 0.14139 0.14138 0.43057 0.43058 0.85794 0.57196 1.4292-5.2884 3.7165-10.577 7.5762-16.58 11.721 2.4299 1.4293 4.1451 2.5725 6.003 3.5732 12.436 7.0043 22.441 16.724 29.302 29.302 12.722 23.299 10.006 49.743-7.2896 70.04-12.579 14.723-28.73 24.014-46.455 30.875-7.1463 2.7158-14.437 5.1457-22.155 7.7189 3.5738 10.72 0.14139 20.154-4.2878 29.588-3.0018 6.1463-6.2896 12.293-9.2915 18.439-1.4293 2.8585-2.7158 5.7177-3.7158 8.5762-2.4305 7.5756 0.43057 11.721 8.4329 12.15 2.7158 0.14138 5.575 0.28276 8.1476-0.43058 8.0049-2.2872 15.866-5.003 23.728-7.5762 2.2872-0.71463 3.7165-2.1439 4.4311-4.7171 4.1451-14.437 12.865-26.157 23.585-36.306 20.298-19.154 44.026-32.162 71.469-38.022 8.5768-1.8586 17.296-2.5732 26.158-0.85794 13.722 2.5732 22.727 9.8628 25.443 24.014 0 0.71463 0.572 1.7152 1.0006 3.1445m-161.38-127.79c-27.302 26.587-49.028 56.89-70.612 88.05 18.296-4.2878 33.877-0.14138 46.741 12.865 12.007-5.5744 22.298-12.721 31.304-21.441 7.0036-6.7183 12.864-14.294 16.58-23.299 6.0037-14.437 4.0024-27.73-5.5744-40.022-5.003-6.4323-11.006-11.435-18.439-16.152zm694.25 128.93c0.1414-8.7189-4.0018-13.293-12.149-14.437-5.861-0.85794-11.721-0.43058-17.296 1.7152-22.299 8.7195-39.165 23.585-50.743 44.311-1.8586 3.4305-3.1451 7.2902-3.8598 11.149-1.4292 8.2902 3.0019 14.151 11.149 15.866 6.575 1.4292 12.865-0.14139 19.011-2.2872 9.8628-3.4305 18.153-9.1482 26.444-15.294 3.8591-3.0018 6.1463-6.2896 6.7176-11.292 1.144-9.7201 6.433-16.724 14.866-21.012 4.717-2.2872 6.2896-5.289 5.8603-8.7195zm-567.47-15.008c-2.1439 0.14138-4.2877 0.28276-6.289 0.57196-2.0012 0.43057-4.0024 1.0006-6.0036 1.7152-22.156 8.7195-39.022 23.728-50.6 44.597-1.8585 3.4305-3.0018 7.4329-3.5738 11.149-1.2866 8.1476 2.8585 13.579 10.863 15.437 5.2884 1.2866 10.435 0.28277 15.437-1.0006 10.577-2.8585 19.583-8.8622 28.445-15.151 4.8598-3.5738 8.1476-7.5762 8.4336-13.723 0-1.1433 0.5719-2.4299 1.0006-3.5732 2.4298-7.8616 8.0042-13.007 14.865-17.01 1.7152-1.0006 3.5738-2.4299 4.1457-4.1451 3.1445-9.5768-1.7152-17.01-11.864-18.439-1.5726-0.28919-3.2878-0.28919-4.8604-0.43058zm348.2 50.172c7.0036-2.7158 13.293-4.7171 19.297-7.2902 13.293-5.8603 25.729-13.007 34.734-24.585 3.2872-4.4311 5.8603-9.5768 7.8616-14.723 1.5719-3.7165-0.4306-5.575-4.4311-4.8604-16.009 2.7158-30.446 8.5768-41.881 20.441-7.8616 8.2902-13.293 18.01-15.58 31.018zm-516.15-55.746c-5.7177-11.292-24.586-14.008-31.876-5.003 7.4329 9.1482 20.44 11.292 31.876 5.003z"/><path class="st5" d="m660.57 355.48c-3.5738 4.1451-6.861 8.8622-10.863 12.579-21.155 20.012-45.883 33.162-74.329 39.308-11.149 2.4305-22.584 3.8598-34.019 4.5744-7.1469 0.43058-14.58-0.85794-21.727-2.2872-6.7176-1.2866-12.435-4.8597-15.437-10.72-10.005 3.1445-19.154 6.7176-28.588 9.0048-12.579 3.2878-25.443 4.1451-38.451 1.1439-12.007-2.8592-20.584-9.0055-22.727-22.013 0-0.43058-0.43058-0.71463-1.1433-1.5726-20.154 2.4299-40.738 2.5732-61.607-1.7152-6.0037 6.575-12.15 13.151-18.154 19.869-20.011 22.155-40.166 44.168-62.607 64.036-18.868 16.58-38.879 31.732-61.749 42.453-15.294 7.1469-31.304 11.721-48.171 12.149-23.013 0.43057-43.31-7.0036-62.464-21.441 4.7171-4.0024 9.1482-7.7182 13.15-11.149 6.4323 3.7165 12.15 7.8622 18.44 10.578 17.152 7.1469 34.305 5.717 51.029-1.7152 13.579-6.147 25.3-14.723 35.305-25.443 26.301-28.016 52.316-56.318 78.331-84.62 0.57196-0.57197 0.99997-1.2866 2.0006-2.8585-2.2866 0.57196-3.8591 0.8573-5.2884 1.286-24.014 7.8622-48.027 15.58-72.899 20.012-10.006 1.7152-20.298 2.2872-30.446 3.1445-3.2878 0.28277-6.7183-0.43058-9.8628-0.99997-10.005-1.8586-13.436-5.861-14.008-16.295-7.0043 2.2866-13.865 4.5738-20.726 6.7176-16.724 5.289-33.591 10.006-51.172 11.293-5.575 0.43058-11.293 0.14139-16.867-0.57196-9.5768-1.4299-13.293-5.575-14.294-15.724-1.5726 0.57196-3.0018 1.0006-4.4311 1.5726-18.868 8.1476-38.308 14.151-59.034 15.58-8.4329 0.57196-16.724-0.28277-24.728-3.1445-22.013-7.8622-34.019-29.303-30.16-53.03 3.4305-20.869 12.722-39.308 25.3-56.032 41.452-54.888 96.055-89.766 163.52-104.2 11.292-2.4299 23.156-3.2878 34.734-4.0024 14.723-1.0006 31.018 1.5726 47.17 10.149 0.43057-0.14139 1.0006-0.14139 1.1433-0.28277 5.4317-6.861 12.722-8.5762 21.155-8.0049 10.006 0.57196 20.012 0.14139 30.018 0.14139 1.4293 0 3.0012-0.14139 4.4311 0.14138 2.7158 0.43058 3.4305 2.0012 2.0012 4.4311-0.85794 1.4292-2.0012 2.7158-3.0018 4.0024-21.012 24.585-42.024 49.314-63.036 73.899-22.584 26.587-45.026 53.316-67.467 80.046-3.2878 4.0018-6.1463 8.4329-9.0048 12.721-0.85794 1.1433-1.5726 2.4299-2.1445 3.8591-1.1433 2.8592-3.0012 5.8604-0.8573 8.8622 2.2872 3.0018 5.8603 2.0012 8.7189 1.5726 3.4311-0.43058 7.0043-1.2866 10.292-2.5732 12.579-5.1457 25.014-10.291 37.45-15.866 2.4299-1.1439 4.5738-3.5738 6.4323-5.7177 21.583-25.872 44.025-50.886 68.039-74.471 24.728-24.299 50.886-47.17 80.046-66.038 13.722-8.8622 27.873-16.724 43.596-21.584 6.575-2.0006 13.437-3.2872 20.298-3.0012 9.4341 0.43058 13.15 5.4317 10.291 14.579-1.2866 4.1458-3.1445 8.2909-5.7177 11.721-7.0036 9.2908-14.008 18.725-22.298 27.015-29.16 29.446-62.321 53.745-100.06 71.041-5.861 2.7158-12.007 5.003-18.01 7.1469-2.8592 1.0006-5.003 2.4299-6.861 5.003-8.7195 12.435-17.725 24.871-26.587 37.307-1.5719 2.1439-3.0012 4.5738-4.0018 7.0036-1.5726 4.0024-0.28277 6.1463 3.8591 7.5756 5.7177 1.8586 11.292 0.43057 16.724-0.71463 18.439-3.5732 36.163-9.8628 53.888-16.295 0.43058-0.14139 0.57196-0.57196 1.2866-1.1433-0.85729-1.8579-2.0012-3.7165-2.7158-5.8604-3.5732-9.0055 1.5726-16.295 11.149-15.438 3.8591 0.28277 7.5756 2.0012 11.292 3.4311 2.1445 0.8573 4.0024 2.1439 6.2896 3.5732 1.5719-1.7152 3.1445-3.4305 4.7171-5.1457 23.299-26.444 47.313-52.458 73.041-76.615 22.871-21.441 46.884-41.596 74.329-57.175 13.15-7.4329 26.872-13.437 41.881-16.152 4.0024-0.71463 8.2902-1.0006 12.435-0.57196 7.2902 0.85794 10.721 5.7177 8.7195 12.865-1.1433 4.4311-2.8585 8.8622-5.4317 12.436-6.4323 8.8622-13.007 18.01-20.726 25.872-26.873 27.873-57.318 51.029-91.91 68.754-7.7189 4.0024-16.152 6.7183-24.157 10.291-2.0012 0.85794-4.2884 2.0012-5.5744 3.5738-10.149 12.435-20.155 25.014-30.16 37.593-0.43058 0.43057-0.57196 1.1439-1.0006 2.1445 15.723 5.1457 31.876 5.717 48.313 6.575 0.71463-1.4293 1.2866-2.7158 1.7152-4.0024 6.575-18.153 18.868-31.876 33.447-43.74 19.297-15.58 41.31-25.014 65.895-28.016 8.2902-1.0006 16.724-0.8573 24.871 1.0006 8.1476 1.8586 15.294 5.5744 20.584 13.437 7.0036-7.4329 16.009-7.5762 25.157-7.2902 5.8604 0.14139 11.721-0.14138 17.581 0.14139 2.0012 0.14138 4.1458 0.99996 7.2902 1.7152-3.1445 4.1451-5.289 7.2896-7.7189 10.434-12.579 15.58-25.3 31.161-37.879 46.741-3.1451 3.8591-5.7177 8.2902-8.2909 12.435-1.0006 1.7152-1.7152 3.8598-2.2866 5.8604-1.8586 7.4329 1.0006 11.579 8.5762 11.579 5.003 0 10.005-0.57196 14.866-1.7159 18.153-4.7164 34.877-12.864 49.457-24.871 3.8591-3.1445 7.1469-7.0036 10.435-10.72 1.7152-2.1439 3.4305-3.2878 6.289-3.1445 5.003 0.14138 9.8628 0 14.866 0 0.43057 0.57196 0.71463 1.1433 1.0006 1.7152m-509.43-146.73c-11.578 1.6433-27.73 8.2182-43.311 16.366-28.73 15.294-53.459 35.735-75.614 59.319-12.007 12.865-23.156 26.444-30.446 42.596-3.0018 6.2896-5.289 13.151-6.4323 20.155-1.7152 10.005 1.4293 18.725 10.291 24.442 8.2902 5.289 17.724 7.8622 27.444 6.7183 23.013-2.7158 42.452-13.722 57.604-30.16 29.731-32.448 58.033-66.324 86.907-99.628 5.003-5.861 9.4341-12.15 12.15-19.583 3.0018-8.5762 0-16.009-8.5762-19.154-4.7171-1.8586-9.7201-2.4299-13.151-2.5015-3.4305-0.0717-5.2884-0.21304-16.866 1.4302zm378.21 102.84c-3.2878 0.57196-6.575 1.0006-9.7201 2.0012-21.583 6.7183-38.307 20.154-50.743 38.737-3.4305 5.1457-6.003 11.006-7.5756 17.01-3.4305 13.722 5.7177 20.583 17.868 19.011 6.1463-0.71463 12.149-2.8592 17.867-5.1464 6.0037-2.4299 12.007-5.0024 16.152-10.291 10.148-12.721 20.297-25.443 30.303-38.307 1.7152-2.1445 2.7158-5.289 2.7158-8.0049 0.43058-9.4341-6.2896-15.151-16.867-15.008zm-116.07-9.0048c0.28277 0.43058 0.43058 0.8573 0.71463 1.286 6.575-1.1433 12.579-4.0018 18.439-7.0036 27.016-13.723 49.6-32.876 69.325-55.604 3.7165-4.2878 6.575-9.5768 9.2908-14.723 1.2866-2.2872 1.8586-5.1457 2.1445-7.7189 0.43058-5.0024-2.1445-6.861-7.0043-5.1457-1.5726 0.57196-3.0018 1.4293-4.4311 2.4299-4.1451 2.8592-8.2902 5.575-12.293 8.5768-20.869 16.152-39.165 35.019-56.604 54.745-6.4323 7.5762-12.864 15.438-19.582 23.157zm-133.51 0.14138c0.28276 0.43058 0.57196 1.0006 0.71527 1.4293 3.2872-1.1433 6.7176-2.0012 9.8628-3.4305 31.875-13.865 57.747-35.592 79.902-61.893 3.8598-4.7171 6.2896-10.72 8.8622-16.438 1.2866-2.7158 2.0012-6.4323-0.99997-8.7195-2.7158-2.0012-5.7177-0.43057-8.1475 1.1439-4.8604 3.1445-9.7201 6.4317-14.437 10.005-21.012 16.295-39.308 35.449-56.89 55.46-6.2896 7.4329-12.579 15.008-18.868 22.441z"/></g></g></svg>
