<?xml version="1.0" encoding="UTF-8"?>
<svg width="1618.5" height="198.59" version="1.1" viewBox="0 0 1618.5 198.59" xmlns="http://www.w3.org/2000/svg"><g fill="#000000"><path d="m0 0v198.59h127.16c22.108 0 57.129-14.036 57.129-53.195 0-45.138-35.979-52.607-35.979-52.607 0 0 21.887-11.152 21.887-46.689 0-22.855-26.334-46.1-54.922-46.1zm38.459 31.717h71.713c1.7402 0 3.6178 0.32914 5.5215 0.95508 1.9029 0.62541 3.8295 1.5466 5.6699 2.7363 0.61348 0.39657 1.2168 0.8226 1.8066 1.2773 0.59056 0.45522 1.1662 0.93795 1.7246 1.4492 0.55774 0.51065 1.096 1.049 1.6133 1.6133 0.28185 0.3074 0.53871 0.64204 0.80664 0.96484 0.22386 0.26974 0.46251 0.52443 0.67578 0.80469 0.19109 0.25106 0.35707 0.52387 0.53906 0.7832 0.55221 0.78688 1.0577 1.6105 1.5156 2.4707 0.13131 0.24671 0.28158 0.47991 0.4043 0.73242 0.34613 0.71209 0.65756 1.4464 0.92968 2.2031 0.54386 1.5124 0.93088 3.1119 1.1289 4.7891 0.099 0.83857 0.15039 1.6959 0.15039 2.5723 0 0.87636-0.0433 1.7337-0.12891 2.5723-0.0856 0.83923-0.21319 1.6579-0.3789 2.457-0.16559 0.79852-0.36938 1.5758-0.60938 2.332-0.72 2.2693-1.7615 4.342-3.0508 6.1895-0.42965 0.61566-0.88746 1.2052-1.3691 1.7695-0.48198 0.5647-0.98713 1.1023-1.5156 1.6133-0.52813 0.51065-1.0795 0.99448-1.6484 1.4492-1.1376 0.90905-2.3518 1.7049-3.6191 2.377-1.2678 0.67226-2.5885 1.2217-3.9414 1.6387-1.3529 0.41694-2.7376 0.70219-4.1309 0.8457-0.6966 0.07176-1.3954 0.10742-2.0938 0.10742h-71.713zm0.01953 80.404h71.713c9.277 0 35.939 3.7921 35.939 26.873 0 23.081-24.767 26.875-35.939 26.875h-71.713z"/><path d="m244.3 0v198.59h170.49v-34.219h-134.04v-51.034h90.275v-33.357h-90.275v-46.364h131.62v-33.618z"/><path d="m719.78 33.618h71.922v164.97h37.448v-164.97h71.318v-33.618h-180.69z"/><path d="m955.26 0v198.59h163.3v-34.219h-126.12v-164.37z"/><path d="m1173.9 0v198.59h170.49v-34.219h-134.04v-51.034h90.275v-33.357h-90.275v-46.364h131.62v-33.618z"/><path d="m1399.5 0 91.25 113.6v84.996h36.453v-85.311l91.346-113.28h-46.811l-62.262 77.215-62.025-77.215z"/><path d="m475.45 0v198.59h34.207v-140l121.31 140h27.732v-198.59h-32.621v134.36l-116.42-134.36z"/></g></svg>
