<?xml version="1.0" encoding="UTF-8"?>
<svg version="1.1" viewBox="0 -9.525 9.527 9.525" xmlns="http://www.w3.org/2000/svg"><path d="m5.2227-2.9912c0.0624 0.0108 0.4338-5e-3 0.5497-0.0233 0.3967-0.0627 0.7478-0.2108 1.089-0.4591 0.1284-0.0935 2.0635-2.0275 2.168-2.1668 0.3297-0.4395 0.498-0.93901 0.4972-1.4764-9e-4 -0.6466-0.2488-1.2435-0.7067-1.7014-0.458-0.4579-1.0548-0.70581-1.7014-0.70671-0.5375-7e-4 -1.038 0.1679-1.4764 0.4974-0.0566 0.0425-0.3275 0.3029-0.6321 0.60751-0.479 0.479-0.5369 0.5411-0.5706 0.6117-0.1304 0.2734-0.0491 0.5931 0.1923 0.75651 0.0498 0.0337 0.1191 0.0706 0.1539 0.082 0.0989 0.0323 0.2357 0.0386 0.3279 0.0149 0.1682-0.0432 0.1741-0.048 0.7258-0.5946 0.309-0.3061 0.5446-0.5297 0.591-0.5608 0.2352-0.1578 0.5002-0.2258 0.7933-0.2037 0.4188 0.0316 0.7961 0.2941 0.9813 0.68271 0.0929 0.1948 0.1282 0.3955 0.1105 0.6269-0.0152 0.1992-0.0862 0.4002-0.2033 0.5757-0.0655 0.0981-1.8542 1.8951-1.9808 1.99-0.2675 0.2004-0.6083 0.2842-0.9271 0.2281-0.2464-0.0434-0.4515-0.1483-0.6586-0.3369-0.198-0.1804-0.4481-0.2212-0.685-0.1117-0.2326 0.1075-0.3742 0.3774-0.3313 0.63141 0.0252 0.1489 0.0812 0.2462 0.2189 0.3806 0.066 0.0644 0.1431 0.1335 0.1715 0.1536 0.4053 0.2877 0.7632 0.4367 1.1638 0.4843 0.0598 0.0071 0.1224 0.0151 0.139 0.0181zm-3.1313 2.9746c0.1589 0.022 0.4662 0.0222 0.6311 3e-4 0.4203-0.0557 0.8147-0.2185 1.162-0.4795 0.0565-0.0425 0.3275-0.3029 0.6321-0.6075 0.479-0.479 0.5369-0.5411 0.5706-0.61171 0.1304-0.2734 0.0491-0.5932-0.1923-0.75651-0.0498-0.0337-0.1191-0.0706-0.1539-0.082-0.0989-0.0324-0.2357-0.0386-0.3279-0.0149-0.1682 0.0432-0.1741 0.048-0.7258 0.5946-0.309 0.3061-0.5446 0.5297-0.591 0.5608-0.2352 0.1578-0.5002 0.2258-0.7933 0.2037-0.2172-0.0164-0.4349-0.0997-0.6166-0.2358-0.5148-0.3858-0.6338-1.1072-0.272-1.6495 0.0655-0.0981 1.8542-1.8951 1.9808-1.99 0.2675-0.2004 0.6083-0.2842 0.9271-0.2281 0.2464 0.0434 0.4515 0.1483 0.6586 0.3369 0.198 0.1804 0.4481 0.2212 0.685 0.1117 0.2326-0.1075 0.3742-0.3774 0.3313-0.6314-0.0252-0.1489-0.0812-0.2462-0.2189-0.3806-0.066-0.0644-0.1431-0.1335-0.1715-0.1536-0.507-0.3599-0.9279-0.5024-1.4842-0.5024-0.5439 0-1.0038 0.1522-1.4573 0.4824-0.1285 0.0935-2.0635 2.0275-2.168 2.1668-0.3298 0.4395-0.498 0.93901-0.4973 1.4764 9e-4 0.64661 0.2488 1.2435 0.7067 1.7014 0.377 0.377 0.8562 0.61531 1.3847 0.68851z" fill="#ff5f3b"/></svg>
