<?xml version="1.0" encoding="UTF-8"?>
<svg id="layer" width="599.8" height="84.6" version="1.1" viewBox="0 0 599.8 84.6" xmlns="http://www.w3.org/2000/svg"><path class="st0" d="m66.6 0.7h12.5v83.3h-14.1v-58l-21.2 28h-8.6l-21.2-28v58h-14v-83.3h12.6l27 35.6c6.6-8.7 26.4-34.7 26.4-34.7zm95.4 0.1c12.9 0 23.3 10.2 23.3 22.8v37.7c0 12.5-10.5 22.7-23.3 22.7h-20.2c-12.9 0-23.3-10.2-23.3-22.7v-37.7c0-12.5 10.5-22.8 23.3-22.8h20.2m8.8 22.7c0-4.6-4-8.4-8.8-8.4h-20.2c-4.9 0-8.8 3.8-8.8 8.4v37.7c0 4.6 4 8.4 8.8 8.4h20.2c4.9 0 8.8-3.8 8.8-8.4v-37.7m295.5-21.5 36.7 82h-15.8l-6.4-14h-42.4l-6.5 14.3h-15.6l37.4-83.6 6 0.1 6.1-0.1zm-6.7 20.6c-4 8.9-11.4 25.5-14.8 33h29.6zm-176.8 7.6c0 8.8-5.5 16.9-13.6 20.6l22.5 33.3h-17.3l-0.7-1s-16.8-24.7-20.6-30.1h-13v31.1h-14.5v-83.4h33.7c12.9 0 23.3 10.2 23.3 22.8v6.7m-14.4-6.8c0-4.6-4-8.4-8.8-8.4h-19.2v23.5h19.2c4.9 0 8.8-3.8 8.8-8.4v-6.7m317.2-22.7v56l-39.3-56h-13v83.3h14.5v-56l39.2 56h13v-83.3zm-210.2 56.1c-0.6 3.6-2.3 6.7-5.1 9.1-3.5 3.2-7.9 4.8-13.3 4.8-3.2 0-6.1-0.6-8.4-1.8-2.4-1-4.3-2.3-5.7-3.9-1.8-1.7-2.9-3.8-3.5-6.5-0.7-2.8-1-8.1-1-16.1 0-7.9 0.3-13.4 1-16.3 0.6-2.6 1.7-4.7 3.5-6.4 1.5-1.6 3.4-3 5.7-4.1 2.3-1 5.1-1.6 8.4-1.7 4.4 0.1 8.2 1.2 11.2 3.3 2.9 2.2 4.9 4.9 6.1 8.1l0.2 0.5h16.6l-0.2-1c-1.5-7-5.3-12.9-11.1-17.6s-13.5-7.1-22.7-7.2c-7.5 0.1-13.9 1.7-18.9 4.7-5.1 3-8.9 6.4-11.2 10.3-1.5 2.2-2.6 4.9-3.3 8.1-0.7 3.3-1 9.6-1 19.2 0 9.5 0.3 15.7 1 19.1 0.3 1.8 0.8 3.3 1.3 4.5 0.6 1.2 1.2 2.4 1.9 3.6 2.3 3.9 6.1 7.3 11.3 10.3 5 3 11.4 4.6 18.9 4.8 9.7-0.2 18-3.1 24.4-8.6 6.4-5.7 9.8-12.8 10-21.1v-13.3h-33.2v13.4h17.5z" fill="#000000"/></svg>
