<?xml version="1.0" encoding="UTF-8"?>
<svg width="1201.4" height="101.04" enable-background="new 0 0 1280 720" version="1.1" viewBox="0 0 1201.4 101.04" xmlns="http://www.w3.org/2000/svg"><g transform="translate(-39.3 -309.48)"><path id="b" d="m999.6 393.5h43.5-43.5-43.5 43.5zm103.5-83.9v17h60v83.7h18.4v-83.7h59.2v-16.9h-137.6zm-868.2 57.6h99.6v-17h-99.7v-23.8h111.9v-16.7h-130.4v100.4h130.4v-16.7h-111.8zm538.1 0h99.6v-17h-99.6v-23.8h112.7v-16.7h-130.5v100.4h130.5v-16.7h-112.7zm-134.1 0.1h53.4v25.9c-0.7 0.1-1 0.2-1.4 0.2h-91.2c-4.1 0-8-3.8-8-8v-50.8c0-1.2 0.4-2.5 1-3.5 2.4-3.8 6.2-4.7 10.4-4.7h96.2 4.4v-16.9h-4.5c-29.4 0-58.7-0.1-88.1 0.1-6.3 0-12.7 0.3-18.9 1.6-12.7 2.7-18.4 9.4-18.9 22.3-0.7 18.1-0.4 36.2 0 54.2 0.1 3.9 1.4 8.2 3.4 11.7 5 9 14.2 10.7 23.2 10.7 35.8 0.3 71.6 0.1 107.3 0.1h3.5v-59.8h-72zm432.4-27c0.1 15 0.2 30 0 45-0.2 10-3.9 18.4-13.8 22.3-4.3 1.6-9 2.6-13.6 2.7-14.7 0.3-29.5 0.1-44.3 0.1s-29.3 0.2-43.9-0.1c-4.6-0.1-9.3-1.1-13.6-2.6-7.3-2.5-11.3-8.2-12.4-15.8-0.5-3.5-0.8-7.1-0.8-10.6-0.1-15.5-0.2-31 0-46.6 0.1-7 1.7-13.6 7.4-18.3 5.1-4.2 11.3-5.8 17.6-5.9 27.4-0.5 54.8-0.9 82.2-0.7 7.1 0 14.2 0.7 21.1 3.5 7.8 3.2 11.7 8.8 13.2 16.5 0.8 3.4 0.9 7 0.9 10.5zm-18.3-2.6c0.1-6.3-4.3-11.3-11.3-11.3-12.6 0.2-25.1 0-37.7 0h-45.8c-5.9 0-10.8 3.7-10.8 8.4-0.1 16.7-0.1 33.3 0 50 0 5 3.7 8.5 8.7 8.5h43.5 43.5c6 0 9.9-3.9 9.9-10-0.1-15.1-0.3-30.3 0-45.6zm-877.1-5.7c0.9 6.7 1.1 13.5 0.8 20.2-0.3 6.9-1.4 13.7-6.5 19.2-5.8 6.1-13.1 8.1-20.9 8.2-28.7 0.2-57.5 0.1-86.2 0.1h-4.8v30.6h-19v-100.5c1.1-0.1 2.2-0.2 3.3-0.2 33.9 0 67.7-0.2 101.6 0.1 7.5 0.1 15 1.1 21.7 5.4 6.1 4 9.2 10 10 16.9zm-29.9-5.5c-27.8 0.1-55.7 0-83.5 0h-4.1v35.9c0.9 0.1 1.9 0.3 2.9 0.3h88.1c5.2 0 8.9-3.9 9-9.1 0-4.9-0.3-9.8 0.1-14.6 0.7-8.5-4.7-12.5-12.5-12.5zm383.4-16.7h-18.4v4.4 69.7c0 6.5-3.1 9.6-9.5 9.6-27.6 0-55.2-0.2-82.7 0.2-6.5 0.1-10.3-4.6-10.2-10.3 0.2-23.1 0.1-46.2 0.1-69.3v-4.3h-18.5v4.4c0 19.9-0.1 39.8 0 59.7 0 5.6 0.1 11.2 0.8 16.8 0.8 5.5 3.2 10.4 8.1 13.9 5.9 4.2 12.6 5.8 19.6 5.8 25.3 0.2 50.5 0.1 75.8 0 4.6 0 9.1-0.3 13.7-0.8 13-1.3 21.2-9 21.3-23.6 0.1-24 0-48 0-72z"/></g></svg>
