<?xml version="1.0" encoding="UTF-8"?>
<svg width="500" height="63.416" enable-background="new 0 0 382 500" version="1.1" viewBox="0 0 500 63.416" xmlns="http://www.w3.org/2000/svg"><g fill="#000000"><path d="m79.994 0v62.231h54.212v-12.547h-38.096v-12.602h33.372v-12.381h-33.372v-12.32h37.309v-12.381z" fill-rule="evenodd" stroke-width=".35058"/><path d="m0 0v62.231h16.116v-19.49h19.401l11.253 19.49h18.586l-13.496-22.892c6.5534-3.6177 11.272-10.207 11.272-18.314 0-16.646-12.618-21.025-22.87-21.025zm16.116 12.381h22.856c2.9512 0 6.2357 2.2943 6.2357 9.3871 0 2.4048-0.702 8.5917-6.2357 8.5917h-22.856z" fill-rule="evenodd" stroke-width=".35058"/><path d="m148.85 0v62.231h16.116v-40.085l35.629 40.085h16.116v-62.231h-16.116v39.759l-35.629-39.759z" stroke-width=".22361"/><path d="m253.31 0-27.423 62.231h18.48l4.1814-10.595h31.345l4.1814 10.595h18.48l-27.423-62.231zm10.91 11.922 10.787 27.333h-21.573z"/><path d="m391.71 0v62.231h51.629v-12.547h-35.513v-49.684z"/><path d="m435.44 0v12.381h24.22v49.85h16.116v-49.85h24.22v-12.381z"/><path d="m310.12 0v42.057c0 17.624 17.876 21.359 32.053 21.359s32.053-3.7351 32.053-21.359v-42.057h-16.116v41.27c0 6.4073-9.6883 8.5589-15.937 8.5589s-15.937-2.1516-15.937-8.5589v-41.27z"/></g></svg>
